<svg version="1.1" xmlns="http://www.w3.org/2000/svg" xmlns:xlink="http://www.w3.org/1999/xlink" width="48px" height="48px" viewBox="0,0,256,256"><g fill="none" fill-rule="nonzero" stroke="none" stroke-width="1" stroke-linecap="butt" stroke-linejoin="miter" stroke-miterlimit="10" stroke-dasharray="" stroke-dashoffset="0" font-family="none" font-weight="none" font-size="none" text-anchor="none" style="mix-blend-mode: normal"><g transform="scale(5.33333,5.33333)"><path d="M41,42h-34c-2.206,0 -4,-1.794 -4,-4v-28c0,-2.206 1.794,-4 4,-4h34c2.206,0 4,1.794 4,4v28c0,2.206 -1.794,4 -4,4z" fill="#ffc20b"></path><path d="M7,10h34v28h-34z" fill="#388e3c"></path><path d="M28,36h8v2h-8zM24,17c-1.65685,0 -3,1.34315 -3,3c0,1.65685 1.34315,3 3,3c1.65685,0 3,-1.34315 3,-3c0,-1.65685 -1.34315,-3 -3,-3z" fill="#ffffff"></path><path d="M16,21c-1.10457,0 -2,0.89543 -2,2c0,1.10457 0.89543,2 2,2c1.10457,0 2,-0.89543 2,-2c0,-1.10457 -0.89543,-2 -2,-2z" fill="#a5d6a7"></path><path d="M7,10h34v2h-34z" fill="#2e7d32"></path><path d="M36,38h-8l4,4h8z" fill="#ffab00"></path><path d="M32,21c-1.10457,0 -2,0.89543 -2,2c0,1.10457 0.89543,2 2,2c1.10457,0 2,-0.89543 2,-2c0,-1.10457 -0.89543,-2 -2,-2zM37,28.688c0,-0.445 -0.163,-0.874 -0.468,-1.199c-0.693,-0.739 -2.169,-1.489 -4.532,-1.489c-2.363,0 -3.839,0.75 -4.532,1.489c-0.305,0.325 -0.468,0.753 -0.468,1.199v1.312h10zM21,28.688c0,-0.445 -0.163,-0.874 -0.468,-1.199c-0.693,-0.739 -2.169,-1.489 -4.532,-1.489c-2.363,0 -3.839,0.75 -4.532,1.489c-0.305,0.325 -0.468,0.753 -0.468,1.199v1.312h10z" fill="#a5d6a7"></path><path d="M30,27.742c0,-0.534 -0.196,-1.048 -0.562,-1.438c-0.831,-0.887 -2.603,-2.304 -5.438,-2.304c-2.835,0 -4.607,1.417 -5.438,2.303c-0.366,0.39 -0.562,0.904 -0.562,1.439v2.258h12z" fill="#ffffff"></path></g></g></svg>