<svg version="1.1" xmlns="http://www.w3.org/2000/svg" xmlns:xlink="http://www.w3.org/1999/xlink" width="40px" height="40px" viewBox="0,0,256,256"><g fill="none" fill-rule="nonzero" stroke="none" stroke-width="none" stroke-linecap="none" stroke-linejoin="miter" stroke-miterlimit="10" stroke-dasharray="" stroke-dashoffset="0" font-family="none" font-weight="none" font-size="none" text-anchor="none" style="mix-blend-mode: normal"><g transform="scale(6.4,6.4)"><path d="M20,38.5c-10.201,0 -18.5,-8.299 -18.5,-18.5c0,-10.201 8.299,-18.5 18.5,-18.5c10.201,0 18.5,8.299 18.5,18.5c0,10.201 -8.299,18.5 -18.5,18.5z" fill="#e35d4b" stroke="none" stroke-width="1" stroke-linecap="butt"></path><path d="M20,2c9.925,0 18,8.075 18,18c0,9.925 -8.075,18 -18,18c-9.925,0 -18,-8.075 -18,-18c0,-9.925 8.075,-18 18,-18M20,1c-10.493,0 -19,8.507 -19,19c0,10.493 8.507,19 19,19c10.493,0 19,-8.507 19,-19c0,-10.493 -8.507,-19 -19,-19z" fill-opacity="0.01961" fill="#dde6f3" stroke="none" stroke-width="1" stroke-linecap="butt"></path><path d="M20,35.5c-8.547,0 -15.5,-6.953 -15.5,-15.5c0,-8.547 6.953,-15.5 15.5,-15.5c8.547,0 15.5,6.953 15.5,15.5c0,8.547 -6.953,15.5 -15.5,15.5z" fill="#ffffff" stroke="none" stroke-width="1" stroke-linecap="butt"></path><path d="M20,5c8.271,0 15,6.729 15,15c0,8.271 -6.729,15 -15,15c-8.271,0 -15,-6.729 -15,-15c0,-8.271 6.729,-15 15,-15M20,4c-8.837,0 -16,7.163 -16,16c0,8.837 7.163,16 16,16c8.837,0 16,-7.163 16,-16c0,-8.837 -7.163,-16 -16,-16z" fill-opacity="0.01961" fill="#dde6f3" stroke="none" stroke-width="1" stroke-linecap="butt"></path><path d="M26.995,9.665l-6.995,10.335l5.846,5.846" fill="none" stroke="#66798f" stroke-width="2" stroke-linecap="round"></path><path d="M20,18.5c-0.82843,0 -1.5,0.67157 -1.5,1.5c0,0.82843 0.67157,1.5 1.5,1.5c0.82843,0 1.5,-0.67157 1.5,-1.5c0,-0.82843 -0.67157,-1.5 -1.5,-1.5z" fill="#66798f" stroke="none" stroke-width="1" stroke-linecap="butt"></path><path d="M20,6c-0.55228,0 -1,0.44772 -1,1c0,0.55228 0.44772,1 1,1c0.55228,0 1,-0.44772 1,-1c0,-0.55228 -0.44772,-1 -1,-1zM20,32c-0.55228,0 -1,0.44772 -1,1c0,0.55228 0.44772,1 1,1c0.55228,0 1,-0.44772 1,-1c0,-0.55228 -0.44772,-1 -1,-1z" fill="#c5d4de" stroke="none" stroke-width="1" stroke-linecap="butt"></path><g fill="#c5d4de" stroke="none" stroke-width="1" stroke-linecap="butt"><path d="M33,19c-0.55228,0 -1,0.44772 -1,1c0,0.55228 0.44772,1 1,1c0.55228,0 1,-0.44772 1,-1c0,-0.55228 -0.44772,-1 -1,-1z"></path></g><g fill="#c5d4de" stroke="none" stroke-width="1" stroke-linecap="butt"><path d="M7,19c-0.55228,0 -1,0.44772 -1,1c0,0.55228 0.44772,1 1,1c0.55228,0 1,-0.44772 1,-1c0,-0.55228 -0.44772,-1 -1,-1z"></path></g></g></g></svg>