<svg version="1.1" xmlns="http://www.w3.org/2000/svg" xmlns:xlink="http://www.w3.org/1999/xlink" width="50px" height="50px" viewBox="0,0,256,256"><g fill="#d8230a" fill-rule="nonzero" stroke="none" stroke-width="1" stroke-linecap="butt" stroke-linejoin="miter" stroke-miterlimit="10" stroke-dasharray="" stroke-dashoffset="0" font-family="none" font-weight="none" font-size="none" text-anchor="none" style="mix-blend-mode: normal"><g transform="scale(5.12,5.12)"><path d="M25,-0.03125c-6.0625,0 -11.03125,4.80469 -11.03125,10.75v12.5625c0,5.94531 4.96875,10.75 11.03125,10.75c6.0625,0 11.03125,-4.80469 11.03125,-10.75v-12.5625c0,-5.94531 -4.96875,-10.75 -11.03125,-10.75zM25,2.03125c4.98438,0 8.96875,3.88281 8.96875,8.6875v0.28125h-5.46875c-0.03125,0 -0.0625,0 -0.09375,0c-0.55078,0.02734 -0.98047,0.49609 -0.95312,1.04688c0.02734,0.55078 0.49609,0.98047 1.04688,0.95313h5.46875v2h-5.46875c-0.03125,0 -0.0625,0 -0.09375,0c-0.55078,0.02734 -0.98047,0.49609 -0.95312,1.04688c0.02734,0.55078 0.49609,0.98047 1.04688,0.95313h5.46875v2h-5.46875c-0.03125,0 -0.0625,0 -0.09375,0c-0.55078,0.02734 -0.98047,0.49609 -0.95312,1.04688c0.02734,0.55078 0.49609,0.98047 1.04688,0.95313h5.46875v2.28125c0,4.80469 -3.98437,8.6875 -8.96875,8.6875c-4.98437,0 -8.96875,-3.88281 -8.96875,-8.6875v-2.28125h5.46875c0.35938,0.00391 0.69531,-0.18359 0.87891,-0.49609c0.17969,-0.3125 0.17969,-0.69531 0,-1.00781c-0.18359,-0.3125 -0.51953,-0.5 -0.87891,-0.49609h-5.46875v-2h5.46875c0.35938,0.00391 0.69531,-0.18359 0.87891,-0.49609c0.17969,-0.3125 0.17969,-0.69531 0,-1.00781c-0.18359,-0.3125 -0.51953,-0.5 -0.87891,-0.49609h-5.46875v-2h5.46875c0.35938,0.00391 0.69531,-0.18359 0.87891,-0.49609c0.17969,-0.3125 0.17969,-0.69531 0,-1.00781c-0.18359,-0.3125 -0.51953,-0.5 -0.87891,-0.49609h-5.46875v-0.28125c0,-4.80469 3.98438,-8.6875 8.96875,-8.6875zM9.8125,17.125c-0.41016,0.08594 -0.69922,0.45703 -0.6875,0.875v5c0,7.70313 5.54688,14.16797 12.84375,15.59375v6.40625h-6.5c-1.90234,0 -3.46875,1.57031 -3.46875,3.46875v1.46875h25.875v-1.46875c0,-1.89844 -1.56641,-3.46875 -3.46875,-3.46875h-6.375v-6.40625c7.29688,-1.42578 12.84375,-7.89062 12.84375,-15.59375v-5c0,-0.48437 -0.39062,-0.875 -0.875,-0.875c-0.48437,0 -0.875,0.39063 -0.875,0.875v5c0,7.80078 -6.32422,14.125 -14.125,14.125c-7.80078,0 -14.125,-6.32422 -14.125,-14.125v-5c0.00391,-0.25 -0.10156,-0.48828 -0.28516,-0.65625c-0.1875,-0.16797 -0.43359,-0.25 -0.68359,-0.21875c-0.03125,0 -0.0625,0 -0.09375,0zM24.03125,38.8125c0.32031,0.01953 0.64453,0.0625 0.96875,0.0625c0.32422,0 0.64844,-0.04297 0.96875,-0.0625v6.15625h-1.9375zM15.46875,47h7.28125c0.08203,0.01953 0.16406,0.03125 0.25,0.03125h4c0.07422,-0.00391 0.14844,-0.01172 0.21875,-0.03125h7.1875c0.64063,0 1.06641,0.42188 1.28125,0.96875h-21.5c0.21484,-0.54687 0.63672,-0.96875 1.28125,-0.96875z"></path></g></g></svg>