<svg version="1.1" xmlns="http://www.w3.org/2000/svg" xmlns:xlink="http://www.w3.org/1999/xlink" width="88px" height="88px" viewBox="0,0,256,256"><g fill="#d8230a" fill-rule="nonzero" stroke="none" stroke-width="1" stroke-linecap="butt" stroke-linejoin="miter" stroke-miterlimit="10" stroke-dasharray="" stroke-dashoffset="0" font-family="none" font-weight="none" font-size="none" text-anchor="none" style="mix-blend-mode: normal"><g transform="scale(2.90909,2.90909)"><path d="M74,85h-62.687c7.9425,-1.7259 13.1775,-2.8655 13.8994,-3.0225c0.18738,-0.04092 0.35906,-0.13481 0.4946,-0.2705l57.272,-57.2724c5.35935,-5.36135 5.35854,-14.05194 -0.00181,-19.41229c-5.36035,-5.36035 -14.05094,-5.36116 -19.41229,-0.00181l-57.2719,57.2725c-0.13547,0.13544 -0.22918,0.30694 -0.27,0.4941c-5.889,27.0895 2.299,-10.59 -4.5366,20.8687l-0.4634,2.1313c-0.06216,0.29536 0.01161,0.60302 0.20095,0.83807c0.18934,0.23505 0.47423,0.37266 0.77605,0.37483h72c0.55228,0 1,-0.44772 1,-1c0,-0.55228 -0.44772,-1 -1,-1zM6.6243,69.4347c0.62263,0.61716 1.38425,1.07593 2.2209,1.3378c0.71337,0.22597 1.46897,0.28576 2.209,0.1748c-0.03611,0.23921 -0.05422,0.48078 -0.0542,0.7227c0.05017,2.07077 1.26281,3.93658 3.1348,4.8233c0.90709,0.43753 1.92474,0.59232 2.9209,0.4443c-0.03713,0.24237 -0.05575,0.48721 -0.0557,0.7324c0.0199,1.39224 0.58297,2.72161 1.5691,3.7046l-15.2615,3.3178zM72.3579,20.2275l-54.0044,54.0049c-0.92507,0.81635 -2.25047,0.9959 -3.3594,0.4551c-1.18083,-0.54898 -1.95203,-1.71597 -1.9941,-3.0175c0.01265,-0.74322 0.28406,-1.45876 0.7675,-2.0234l54.0045,-54.005zM24.5005,80.085l-3.2371,0.7037c-1.31355,-0.48906 -2.20564,-1.71825 -2.2634,-3.1187c0.01265,-0.74322 0.28406,-1.45876 0.7675,-2.0234l54.0045,-54.005l4.5859,4.5859zM64.979,6.4346c4.58007,-4.58007 12.00583,-4.58007 16.5859,0c4.58007,4.58007 4.58007,12.00583 0,16.5859l-1.7929,1.793l-16.586,-16.586zM61.772,9.6416l4.5859,4.5859l-54.0062,54.0068c-0.79716,0.70137 -1.90121,0.93874 -2.9162,0.627c-1.02737,-0.33939 -1.84464,-1.12759 -2.221,-2.142l0.7,-3.22zM86,85h-8c-0.55228,0 -1,0.44772 -1,1c0,0.55228 0.44772,1 1,1h8c0.55228,0 1,-0.44772 1,-1c0,-0.55228 -0.44772,-1 -1,-1z"></path></g></g></svg>