<svg version="1.1" xmlns="http://www.w3.org/2000/svg" xmlns:xlink="http://www.w3.org/1999/xlink" width="48px" height="48px" viewBox="0,0,256,256"><g fill="none" fill-rule="nonzero" stroke="none" stroke-width="1" stroke-linecap="butt" stroke-linejoin="miter" stroke-miterlimit="10" stroke-dasharray="" stroke-dashoffset="0" font-family="none" font-weight="none" font-size="none" text-anchor="none" style="mix-blend-mode: normal"><g transform="scale(5.33333,5.33333)"><path d="M24,4c-11.053,0 -20,8.947 -20,20c0,11.053 8.947,20 20,20c11.053,0 20,-8.947 20,-20c0,-11.053 -8.947,-20 -20,-20z" fill="#ff3e01"></path><path d="M24,8c-8.854,0 -16,7.146 -16,16c0,8.854 7.146,16 16,16c8.854,0 16,-7.146 16,-16c0,-8.854 -7.146,-16 -16,-16zM24,36c-6.656,0 -12,-5.344 -12,-12c0,-6.656 5.344,-12 12,-12c6.656,0 12,5.344 12,12c0,6.656 -5.344,12 -12,12zM24,16c-4.455,0 -8,3.545 -8,8c0,4.455 3.545,8 8,8c4.455,0 8,-3.545 8,-8c0,-4.455 -3.545,-8 -8,-8zM24,28c-2.266,0 -4,-1.734 -4,-4c0,-2.266 1.734,-4 4,-4c2.266,0 4,1.734 4,4c0,2.266 -1.734,4 -4,4z" fill="#ffffff"></path><path d="M43,9c0,0 -0.602,2.301 -2.199,3.801c-1.602,1.598 -8,2.398 -8,2.398c0,0 0.801,-6.5 2.398,-8c1.5,-1.597 3.801,-2.199 3.801,-2.199v4z" fill="#1976d2"></path><path d="M42.699,5.301c-0.398,-0.402 -1,-0.402 -1.398,0l-18,18c-0.402,0.398 -0.402,1 0,1.398c0.199,0.199 0.5,0.301 0.699,0.301c0.199,0 0.5,-0.102 0.699,-0.301l18,-18c0.403,-0.398 0.403,-1 0,-1.398z" fill="#37474f"></path><path d="M38.977,7.727l1.414,1.414l-5.867,5.871l-1.414,-1.414z" fill="#42a5f5"></path></g></g></svg>