<svg version="1.1" xmlns="http://www.w3.org/2000/svg" xmlns:xlink="http://www.w3.org/1999/xlink" width="64px" height="64px" viewBox="0,0,256,256"><g fill="none" fill-rule="nonzero" stroke="none" stroke-width="1" stroke-linecap="butt" stroke-linejoin="miter" stroke-miterlimit="10" stroke-dasharray="" stroke-dashoffset="0" font-family="none" font-weight="none" font-size="none" text-anchor="none" style="mix-blend-mode: normal"><g transform="scale(4,4)"><path d="M44,10h-24c-5.523,0 -10,4.477 -10,10v24c0,5.523 4.477,10 10,10h24c5.523,0 10,-4.477 10,-10v-24c0,-5.523 -4.477,-10 -10,-10z" fill="#fa5252"></path><path d="M44,15h-24c-2.761,0 -5,2.239 -5,5v24c0,2.761 2.239,5 5,5h24c2.761,0 5,-2.239 5,-5v-24c0,-2.761 -2.239,-5 -5,-5z" fill="#ffffff"></path><ellipse cx="32" cy="61" rx="20" ry="3" fill="#000000" opacity="0.3"></ellipse><path d="M26.727,42.104l-8.43,-8.457c-0.397,-0.398 -0.397,-1.044 0,-1.442l2.875,-2.884c0.397,-0.398 1.041,-0.398 1.438,0l6.135,6.154l12.428,-14.13c0.371,-0.422 1.014,-0.463 1.435,-0.09l3.049,2.699c0.421,0.373 0.461,1.017 0.09,1.439l-14.577,16.572c-1.163,1.323 -3.199,1.387 -4.443,0.139z" fill="#fa5252"></path><path d="M31,15c2.761,0 5,-2.238 5,-5h-16c-5.523,0 -10,4.477 -10,10v22c2.761,0 5,-2.238 5,-5v-17c0,-2.757 2.243,-5 5,-5z" fill="#ffffff" opacity="0.3"></path><path d="M54,44v-22c-2.761,0 -5,2.238 -5,5v17c0,2.757 -2.243,5 -5,5h-11c-2.761,0 -5,2.238 -5,5h16c5.523,0 10,-4.477 10,-10z" fill="#000000" opacity="0.15"></path><path d="M14,21.5c-0.829,0 -1.5,-0.671 -1.5,-1.5c0,-4.136 3.364,-7.5 7.5,-7.5c0.829,0 1.5,0.671 1.5,1.5c0,0.829 -0.671,1.5 -1.5,1.5c-2.481,0 -4.5,2.019 -4.5,4.5c0,0.829 -0.671,1.5 -1.5,1.5z" fill="#ffffff"></path></g></g></svg>