<svg version="1.1" xmlns="http://www.w3.org/2000/svg" xmlns:xlink="http://www.w3.org/1999/xlink" width="64px" height="64px" viewBox="0,0,256,256"><g fill="#fa5252" fill-rule="nonzero" stroke="none" stroke-width="1" stroke-linecap="butt" stroke-linejoin="miter" stroke-miterlimit="10" stroke-dasharray="" stroke-dashoffset="0" font-family="none" font-weight="none" font-size="none" text-anchor="none" style="mix-blend-mode: normal"><g transform="scale(4,4)"><path d="M11.91211,2.00195c-1.62167,0.04753 -2.91175,1.37568 -2.91211,2.99805v2h-4c-1.6548,0.00494 -2.99506,1.3452 -3,3v49c0.00494,1.6548 1.3452,2.99506 3,3h44c1.6548,-0.00494 2.99506,-1.3452 3,-3v-18.92969l8.58008,-8.58008c1.16997,-1.1713 1.16997,-3.06894 0,-4.24023l-2.83008,-2.83008c-1.1713,-1.16997 -3.06894,-1.16997 -4.24023,0l-1.50977,1.50977v-15.92969c-0.00494,-1.6548 -1.3452,-2.99506 -3,-3h-4v-2c0,-1.65685 -1.34315,-3 -3,-3c-1.65685,0 -3,1.34315 -3,3v2h-4v-2c0,-1.65685 -1.34315,-3 -3,-3c-1.65685,0 -3,1.34315 -3,3v2h-4v-2c0,-1.65685 -1.34315,-3 -3,-3c-1.65685,0 -3,1.34315 -3,3v2h-4v-2c-0.00018,-0.81078 -0.32852,-1.58696 -0.91022,-2.15174c-0.5817,-0.56478 -1.36724,-0.87006 -2.17767,-0.84631zM12.0293,4c0.54081,0.01585 0.97094,0.45896 0.9707,1v6c0,0.55228 -0.44772,1 -1,1c-0.55228,0 -1,-0.44772 -1,-1v-6c-0.00012,-0.27037 0.10925,-0.52927 0.30317,-0.71767c0.19392,-0.1884 0.45587,-0.29025 0.72612,-0.28233zM22.0293,4c0.54081,0.01585 0.97094,0.45896 0.9707,1v6c0,0.55228 -0.44772,1 -1,1c-0.55228,0 -1,-0.44772 -1,-1v-6c-0.00012,-0.27037 0.10925,-0.52927 0.30317,-0.71767c0.19392,-0.1884 0.45587,-0.29025 0.72612,-0.28233zM32.0293,4c0.54081,0.01585 0.97094,0.45896 0.9707,1v6c0,0.55228 -0.44772,1 -1,1c-0.55228,0 -1,-0.44772 -1,-1v-6c-0.00012,-0.27037 0.10925,-0.52927 0.30317,-0.71767c0.19392,-0.1884 0.45587,-0.29025 0.72612,-0.28233zM42.0293,4c0.54081,0.01585 0.97094,0.45896 0.9707,1v6c0,0.55228 -0.44772,1 -1,1c-0.55228,0 -1,-0.44772 -1,-1v-6c-0.00012,-0.27037 0.10925,-0.52927 0.30317,-0.71767c0.19392,-0.1884 0.45587,-0.29025 0.72612,-0.28233zM5,9h4v2c0,1.65685 1.34315,3 3,3c1.65685,0 3,-1.34315 3,-3v-2h4v2c0,1.65685 1.34315,3 3,3c1.65685,0 3,-1.34315 3,-3v-2h4v2c0,1.65685 1.34315,3 3,3c1.65685,0 3,-1.34315 3,-3v-2h4v2c0,1.65685 1.34315,3 3,3c1.65685,0 3,-1.34315 3,-3v-2h4c0.55228,0 1,0.44772 1,1v8h-46v-8c0,-0.55228 0.44772,-1 1,-1zM4,20h46v7.92969l-14.16992,14.16992c-0.10031,0.09923 -0.17881,0.21831 -0.23047,0.34961l-3.5293,9.19141c-0.14889,0.3683 -0.06272,0.78997 0.21875,1.07031c0.18953,0.18642 0.44509,0.29033 0.71094,0.28906c0.12329,0.00083 0.24549,-0.02308 0.35938,-0.07031l9.19141,-3.5293c0.1313,-0.05166 0.25038,-0.13016 0.34961,-0.23047l7.09961,-7.09961v16.92969c0,0.55228 -0.44772,1 -1,1h-44c-0.55228,0 -1,-0.44772 -1,-1zM55.64258,25.54883c0.25814,0.00462 0.50449,0.1089 0.6875,0.29102l2.83008,2.83008c0.38783,0.39006 0.38783,1.0201 0,1.41016l-2.12109,2.11914l-4.23828,-4.23828l2.11914,-2.12109c0.19164,-0.19071 0.45234,-0.29569 0.72266,-0.29102zM10,27v2h34v-2zM51.38086,29.36914l1.41992,1.41992l-13.44141,13.43164l-1.41016,-1.41016zM54.21094,32.19922l1.41992,1.41992l-13.44141,13.43164l-1.41016,-1.41016zM10,33v2h30v-2zM10,39v2h24v-2zM36.91992,44.59961l3.48047,3.48047l-2.05078,0.78906l-2.21875,-2.21875zM10,45v2h22v-2zM35.34961,48.68945l0.96094,0.96094l-1.57031,0.60938zM10,51v2h20v-2z"></path></g></g></svg>