<svg version="1.1" xmlns="http://www.w3.org/2000/svg" xmlns:xlink="http://www.w3.org/1999/xlink" width="50px" height="50px" viewBox="0,0,256,256"><g fill="#d87171" fill-rule="nonzero" stroke="none" stroke-width="1" stroke-linecap="butt" stroke-linejoin="miter" stroke-miterlimit="10" stroke-dasharray="" stroke-dashoffset="0" font-family="none" font-weight="none" font-size="none" text-anchor="none" style="mix-blend-mode: normal"><g transform="scale(5.12,5.12)"><path d="M2.8125,8c-0.47656,0.08984 -0.82031,0.51172 -0.8125,1v29h-1c-0.03125,0 -0.0625,0 -0.09375,0c-0.51562,0.04688 -0.91016,0.48047 -0.90625,1v5c0,0.55078 0.44922,1 1,1h48c0.55078,0 1,-0.44922 1,-1v-5c0,-0.55078 -0.44922,-1 -1,-1h-1v-29c0,-0.55078 -0.44922,-1 -1,-1h-44c-0.03125,0 -0.0625,0 -0.09375,0c-0.03125,0 -0.0625,0 -0.09375,0zM4,10h42v28h-24.09375l1.09375,-2l-1.09375,-2h-10.90625v4h-7zM39,14.96875c-0.05469,0.00781 -0.10547,0.01563 -0.15625,0.03125c-0.16016,0.02734 -0.30859,0.08984 -0.4375,0.1875l-13.375,9.53125l-5.40625,-4.5c-0.35156,-0.28516 -0.85156,-0.29687 -1.21875,-0.03125l-8,6c-0.44922,0.32813 -0.54687,0.95703 -0.21875,1.40625c0.32813,0.44922 0.95703,0.54688 1.40625,0.21875l7.375,-5.53125l5.40625,4.5c0.35156,0.28516 0.85156,0.29688 1.21875,0.03125l14,-10c0.38672,-0.24219 0.55859,-0.71875 0.41797,-1.15234c-0.14062,-0.43359 -0.55469,-0.71875 -1.01172,-0.69141zM2,40h46v3h-46z"></path></g></g></svg>