<svg version="1.1" xmlns="http://www.w3.org/2000/svg" xmlns:xlink="http://www.w3.org/1999/xlink" width="48px" height="48px" viewBox="0,0,256,256"><defs><linearGradient x1="19.142" y1="5.782" x2="28.279" y2="40.044" gradientUnits="userSpaceOnUse" id="color-1"><stop offset="0" stop-color="#eb1c00"></stop><stop offset="1" stop-color="#b9360c"></stop></linearGradient><linearGradient x1="7.892" y1="17.783" x2="11.056" y2="27.063" gradientUnits="userSpaceOnUse" id="color-2"><stop offset="0" stop-color="#ffcf7b"></stop><stop offset="0.195" stop-color="#fecd76"></stop><stop offset="0.439" stop-color="#fac666"></stop><stop offset="0.71" stop-color="#f3bc4d"></stop><stop offset="0.997" stop-color="#eaad29"></stop><stop offset="1" stop-color="#eaad29"></stop></linearGradient></defs><g fill="none" fill-rule="nonzero" stroke="none" stroke-width="1" stroke-linecap="butt" stroke-linejoin="miter" stroke-miterlimit="10" stroke-dasharray="" stroke-dashoffset="0" font-family="none" font-weight="none" font-size="none" text-anchor="none" style="mix-blend-mode: normal"><g transform="scale(5.33333,5.33333)"><path d="M45,41h-42c-1.657,0 -3,-1.343 -3,-3v-28c0,-1.657 1.343,-3 3,-3h42c1.657,0 3,1.343 3,3v28c0,1.657 -1.343,3 -3,3z" fill="url(#color-1)"></path><circle cx="6" cy="34" r="1" fill="#ff8f6b"></circle><circle cx="9" cy="34" r="1" fill="#ff8f6b"></circle><circle cx="12" cy="34" r="1" fill="#ff8f6b"></circle><circle cx="16" cy="34" r="1" fill="#ff8f6b"></circle><circle cx="19" cy="34" r="1" fill="#ff8f6b"></circle><circle cx="22" cy="34" r="1" fill="#ff8f6b"></circle><circle cx="26" cy="34" r="1" fill="#ff8f6b"></circle><circle cx="29" cy="34" r="1" fill="#ff8f6b"></circle><circle cx="32" cy="34" r="1" fill="#ff8f6b"></circle><circle cx="36" cy="34" r="1" fill="#ff8f6b"></circle><circle cx="39" cy="34" r="1" fill="#ff8f6b"></circle><circle cx="42" cy="34" r="1" fill="#ff8f6b"></circle><path d="M11,19v4h-3v-4zM8,26h3v-2h-3zM12,21h2c0,-1.105 -0.895,-2 -2,-2zM12,22v4c1.105,0 2,-0.895 2,-2v-2zM7,22h-2v2c0,1.105 0.895,2 2,2zM7,19c-1.105,0 -2,0.895 -2,2h2z" fill="url(#color-2)"></path></g></g></svg>