<svg version="1.1" xmlns="http://www.w3.org/2000/svg" xmlns:xlink="http://www.w3.org/1999/xlink" width="48px" height="48px" viewBox="0,0,256,256"><g fill="none" fill-rule="nonzero" stroke="#d87171" stroke-width="3" stroke-linecap="round" stroke-linejoin="round" stroke-miterlimit="10" stroke-dasharray="" stroke-dashoffset="0" font-family="none" font-weight="none" font-size="none" text-anchor="none" style="mix-blend-mode: normal"><g transform="scale(5.33333,5.33333)"><path d="M20.9,40.5h-9.4c-2.2,0 -4,-1.8 -4,-4v-25c0,-2.2 1.8,-4 4,-4h15.5"></path><path d="M40.5,20.1v16.4c0,2.2 -1.8,4 -4,4h-8.2"></path><path d="M34.8,8.4l5.2,-5.1c1.4,-1.4 3.6,-1.4 5,0v0c1.4,1.4 1.4,3.6 0,5l-10.8,10.7c-0.2,0.2 -0.4,0.3 -0.6,0.4l-5.1,1.3c-0.6,0.2 -1.2,-0.4 -1,-1l1.3,-5.1c0.1,-0.2 0.2,-0.4 0.4,-0.6l2.3,-2.3"></path><path d="M38,5.2l5,5"></path></g></g></svg>