<svg version="1.1" xmlns="http://www.w3.org/2000/svg" xmlns:xlink="http://www.w3.org/1999/xlink" width="24px" height="24px" viewBox="0,0,256,256"><g fill="#d87171" fill-rule="nonzero" stroke="none" stroke-width="1" stroke-linecap="butt" stroke-linejoin="miter" stroke-miterlimit="10" stroke-dasharray="" stroke-dashoffset="0" font-family="none" font-weight="none" font-size="none" text-anchor="none" style="mix-blend-mode: normal"><g transform="scale(10.66667,10.66667)"><path d="M10.5,2.25c0,-0.276 -0.224,-0.5 -0.5,-0.5h-8c-0.276,0 -0.5,0.224 -0.5,0.5v8c0,0.276 0.224,0.5 0.5,0.5h8c0.276,0 0.5,-0.224 0.5,-0.5zM9.5,2.75v7h-7v-7zM10.5,13.75c0,-0.276 -0.224,-0.5 -0.5,-0.5h-8c-0.276,0 -0.5,0.224 -0.5,0.5v8c0,0.276 0.224,0.5 0.5,0.5h8c0.276,0 0.5,-0.224 0.5,-0.5zM9.5,14.25v7h-7v-7zM22.5,13.75c0,-0.276 -0.224,-0.5 -0.5,-0.5h-8c-0.276,0 -0.5,0.224 -0.5,0.5v8c0,0.276 0.224,0.5 0.5,0.5h8c0.276,0 0.5,-0.224 0.5,-0.5zM21.5,14.25v7h-7v-7zM22.5,2.25c0,-0.276 -0.224,-0.5 -0.5,-0.5h-8c-0.276,0 -0.5,0.224 -0.5,0.5v8c0,0.276 0.224,0.5 0.5,0.5h8c0.276,0 0.5,-0.224 0.5,-0.5zM21.5,2.75v7h-7v-7z"></path></g></g></svg>