<svg version="1.1" xmlns="http://www.w3.org/2000/svg" xmlns:xlink="http://www.w3.org/1999/xlink" width="480.11px" height="480.11px" viewBox="0,0,256,256"><g fill="#d87171" fill-rule="nonzero" stroke="none" stroke-width="1" stroke-linecap="butt" stroke-linejoin="miter" stroke-miterlimit="10" stroke-dasharray="" stroke-dashoffset="0" font-family="none" font-weight="none" font-size="none" text-anchor="none" style="mix-blend-mode: normal"><g transform="scale(0.53321,0.53321)"><path d="M260.298,252.483c2.059,3.91 0.559,8.748 -3.35,10.807c-7.75,4.081 -13.784,10.805 -16.99,18.932c-1.241,3.146 -4.255,5.066 -7.444,5.066c-5.628,0 -9.511,-5.688 -7.439,-10.938c4.611,-11.687 13.283,-21.353 24.418,-27.217c3.909,-2.06 8.746,-0.558 10.805,3.35zM414.64,469.017c-6.065,0 -12.126,-1.712 -17.397,-5.128c-5.536,9.704 -15.99,16.222 -27.818,16.222h-304c-17.645,0 -32,-14.355 -32,-32v-416c0,-17.645 14.355,-32 32,-32c256.127,0 241.906,-0.78 245.063,1.806c0.404,0.33 88.639,88.491 89.298,89.355c2.785,3.663 1.909,8.897 -1.884,11.465c-2.811,1.915 0.714,1.373 -68.477,1.373c-30.504,0 -40.786,-40 -24,-40c4.418,0 8,3.582 8,8c0,8.822 7.178,16 16,16h44.687l-72,-72h-236.686c-8.822,0 -16,7.178 -16,16v416c0,8.822 7.178,16 16,16h304c7.261,0 13.484,-4.909 15.391,-11.647l-45.716,-45.716c-3.125,-3.124 -3.125,-8.189 0,-11.313l11.314,-11.314l-19.92,-19.92c-3.136,-3.136 -3.176,-8.318 0.185,-11.481c51.722,-54.965 12.186,-137.608 -56.754,-137.608c-44.388,0 -80.5,36.112 -80.5,80.5c0,44.388 36.112,80.5 80.5,80.5c4.418,0 8,3.582 8,8c0,4.418 -3.582,8 -8,8c-53.21,0 -96.5,-43.29 -96.5,-96.5c0,-53.21 43.29,-96.5 96.5,-96.5c82.473,0 126.583,97.176 73.335,159.229l14.467,14.467c11.85,-11.85 12.687,-13.657 16.97,-13.657c3.659,0 5.53,2.217 6.727,3.414v-218.12c0,-4.418 3.582,-8 8,-8c4.418,0 8,3.582 8,8v234.119l35.842,35.842c20.23,20.229 5.64,54.612 -22.627,54.612zM425.954,425.718c-46.957,-46.956 -21.511,-21.511 -47.255,-47.254l-22.627,22.627l47.255,47.255c6.238,6.238 16.389,6.239 22.627,0c6.254,-6.255 6.253,-16.376 0,-22.628zM118.426,85.11h67c4.418,0 8,-3.582 8,-8c0,-4.418 -3.582,-8 -8,-8h-67c-4.418,0 -8,3.582 -8,8c0,4.418 3.582,8 8,8zM240.426,155.61c0,-4.418 -3.582,-8 -8,-8h-114c-4.418,0 -8,3.582 -8,8c0,4.418 3.582,8 8,8h114c4.418,0 8,-3.581 8,-8zM145.426,226.11h-27c-4.418,0 -8,3.582 -8,8c0,4.418 3.582,8 8,8h27c4.418,0 8,-3.582 8,-8c0,-4.418 -3.582,-8 -8,-8zM145.426,306.11h-27c-4.418,0 -8,3.582 -8,8c0,4.418 3.582,8 8,8h27c4.418,0 8,-3.582 8,-8c0,-4.418 -3.582,-8 -8,-8z"></path></g></g></svg>