<svg version="1.1" xmlns="http://www.w3.org/2000/svg" xmlns:xlink="http://www.w3.org/1999/xlink" width="48px" height="48px" viewBox="0,0,256,256"><g fill="none" fill-rule="nonzero" stroke="none" stroke-width="1" stroke-linecap="butt" stroke-linejoin="miter" stroke-miterlimit="10" stroke-dasharray="" stroke-dashoffset="0" font-family="none" font-weight="none" font-size="none" text-anchor="none" style="mix-blend-mode: normal"><g transform="scale(5.33333,5.33333)"><path d="M17,21c0,2.762 -2.238,5 -5,5c-2.762,0 -5,-2.238 -5,-5c0,-2.762 2.238,-5 5,-5c2.762,0 5,2.238 5,5z" fill="#f1c027"></path><path d="M2,34.699c0,0 2.801,-6.301 10,-6.301c7.199,0 10,6.301 10,6.301v3.301h-20zM46,34.699c0,0 -2.801,-6.301 -10,-6.301c-7.199,0 -10,6.301 -10,6.301v3.301h20z" fill="#455a64"></path><path d="M30,17c0,3.313 -2.688,6 -6,6c-3.313,0 -6,-2.688 -6,-6c0,-3.312 2.687,-6 6,-6c3.312,0 6,2.688 6,6z" fill="#ffca28"></path><path d="M36,34.102c0,0 -3.301,-7.5 -12,-7.5c-8.699,0 -12,7.5 -12,7.5v3.898h24z" fill="#607d8b"></path><path d="M41,21c0,2.762 -2.238,5 -5,5c-2.762,0 -5,-2.238 -5,-5c0,-2.762 2.238,-5 5,-5c2.762,0 5,2.238 5,5zM17,21c0,2.762 -2.238,5 -5,5c-2.762,0 -5,-2.238 -5,-5c0,-2.762 2.238,-5 5,-5c2.762,0 5,2.238 5,5z" fill="#f1c027"></path><path d="M41,21c0,2.762 -2.238,5 -5,5c-2.762,0 -5,-2.238 -5,-5c0,-2.762 2.238,-5 5,-5c2.762,0 5,2.238 5,5z" fill="#f1c027"></path></g></g></svg>