<svg version="1.1" xmlns="http://www.w3.org/2000/svg" xmlns:xlink="http://www.w3.org/1999/xlink" width="30px" height="30px" viewBox="0,0,256,256"><g fill="#4e4a4a" fill-rule="nonzero" stroke="none" stroke-width="1" stroke-linecap="butt" stroke-linejoin="miter" stroke-miterlimit="10" stroke-dasharray="" stroke-dashoffset="0" font-family="none" font-weight="none" font-size="none" text-anchor="none" style="mix-blend-mode: normal"><g transform="scale(8.53333,8.53333)"><path d="M15,2.995c-6.61719,0 -12,5.3833 -12,12v5.16504c0,0.00128 0.00073,0.00232 0.00073,0.0036v1.34137c0,1.33002 0.51996,2.59003 1.44995,3.53003l1.38,1.39001l2,0.57996h0.03003c1.64996,0 3,-1.34998 3,-3v-5.89996c0,-1.65002 -1.35004,-3 -3,-3h-0.03003l-2,0.58997l-0.83069,0.83398v-1.534c0,-5.51416 4.48633,-10 10,-10c5.51367,0 10,4.48584 10,10v1.53326l-0.82996,-0.83325l-2,-0.58997h-0.03003c-1.64996,0 -3,1.34998 -3,3v5.89996c0,1.65002 1.35004,3 3,3h0.03003l2,-0.57996l1.38,-1.39001c0.92999,-0.94 1.44995,-2.20001 1.44995,-3.53003c0,-0.10269 0,-6.6127 0,-6.51001c0,-6.6167 -5.38281,-12 -12,-12z"></path></g></g></svg>