<svg version="1.1" xmlns="http://www.w3.org/2000/svg" xmlns:xlink="http://www.w3.org/1999/xlink" width="24px" height="24px" viewBox="0,0,256,256"><g fill="#d87171" fill-rule="nonzero" stroke="none" stroke-width="1" stroke-linecap="butt" stroke-linejoin="miter" stroke-miterlimit="10" stroke-dasharray="" stroke-dashoffset="0" font-family="none" font-weight="none" font-size="none" text-anchor="none" style="mix-blend-mode: normal"><g transform="scale(10.66667,10.66667)"><path d="M12,2c-3.01163,0 -5.69628,1.35567 -7.5293,3.4707l-2.4707,-2.4707v6h6l-2.12305,-2.12305c1.4681,-1.75241 3.66266,-2.87695 6.12305,-2.87695c4.411,0 8,3.589 8,8c0,4.411 -3.589,8 -8,8c-4.411,0 -8,-3.589 -8,-8h-2c0,5.514 4.486,10 10,10c5.514,0 10,-4.486 10,-10c0,-5.514 -4.486,-10 -10,-10zM11,6v6.41406l3.29297,3.29297l1.41406,-1.41406l-2.70703,-2.70703v-5.58594z"></path></g></g></svg>