<svg version="1.1" xmlns="http://www.w3.org/2000/svg" xmlns:xlink="http://www.w3.org/1999/xlink" width="64px" height="64px" viewBox="0,0,256,256"><g fill="#d8230a" fill-rule="nonzero" stroke="none" stroke-width="1" stroke-linecap="butt" stroke-linejoin="miter" stroke-miterlimit="10" stroke-dasharray="" stroke-dashoffset="0" font-family="none" font-weight="none" font-size="none" text-anchor="none" style="mix-blend-mode: normal"><g transform="scale(4,4)"><path d="M45.03711,2.59961l-1.07422,2.80078c2.912,1.563 5.568,3.46277 7.875,5.75977c2.313,2.292 4.22572,4.95295 5.76172,7.87695l2.79883,-1.07617c-0.994,-3.641 -3.08528,-6.94405 -5.73828,-9.62305c-2.662,-2.668 -5.97105,-4.77028 -9.62305,-5.73828zM42.42773,8.83203l-1.27539,2.7168c2.065,1.417 3.98322,2.88461 5.69922,4.59961c1.728,1.703 3.20161,3.62522 4.59961,5.69922l2.7168,-1.27539c-0.852,-2.726 -2.47019,-5.20405 -4.49219,-7.24805c-2.03,-2.034 -4.51305,-3.65919 -7.24805,-4.49219zM31.67969,13.01172c-1.4686,0.03656 -2.93075,0.25598 -4.34375,0.66211c-3.774,1.054 -7.15345,3.38362 -9.43945,6.51563c-2.327,3.104 -3.50748,7.00255 -3.39648,10.81055h3c0.103,-3.17 1.26198,-6.23339 3.20898,-8.65039c1.949,-2.416 4.66177,-4.18083 7.63477,-4.92383c2.968,-0.746 6.17656,-0.51189 8.97656,0.66211c2.804,1.18 5.20009,3.29416 6.74609,5.91016c1.563,2.603 2.19194,5.77553 1.83594,8.76953c-0.18,1.484 -0.65206,2.87698 -1.41406,4.20898c-0.753,1.342 -1.79239,2.60402 -2.90039,4.04102c-1.077,1.413 -2.32203,3.16972 -2.70703,5.38672c-0.103,0.536 -0.13372,1.10305 -0.13672,1.62305c0.002,0.385 -0.00811,0.76944 -0.03711,1.14844c-0.062,0.757 -0.1932,1.49636 -0.4082,2.19336c-0.432,1.392 -1.17758,2.60539 -2.26758,3.40039c-1.079,0.809 -2.50625,1.19247 -4.03125,1.23047v3c1.945,0.039 4.08105,-0.37284 5.87305,-1.58984c1.802,-1.194 3.04492,-3.07328 3.66992,-4.98828c0.325,-0.962 0.519,-1.94387 0.625,-2.92187c0.051,-0.489 0.07694,-0.97784 0.08594,-1.46484c0.015,-0.351 0.03642,-0.65756 0.10742,-0.97656c0.241,-1.255 1.06209,-2.47039 2.12109,-3.77539c1.049,-1.299 2.28697,-2.70091 3.29297,-4.37891c1.019,-1.666 1.75111,-3.6168 2.03711,-5.5918c0.579,-3.921 -0.23903,-7.958 -2.20703,-11.375c-1.937,-3.432 -5.08742,-6.13728 -8.73242,-7.61328c-2.28063,-0.92812 -4.74569,-1.37344 -7.19336,-1.3125zM32,20c-2.876,-0.003 -5.75331,1.21269 -7.69531,3.30469c-0.973,1.04 -1.73847,2.26398 -2.23047,3.58398c-0.463,1.329 -0.68522,2.73833 -0.57422,4.11133h3c0.205,-1.965 1.08775,-3.76525 2.46875,-5.03125c1.383,-1.258 3.18725,-1.98175 5.03125,-1.96875c1.844,-0.013 3.64825,0.71075 5.03125,1.96875c1.381,1.266 2.26375,3.06625 2.46875,5.03125h3c0.112,-1.373 -0.11122,-2.78233 -0.57422,-4.11133c-0.492,-1.321 -1.25747,-2.54398 -2.23047,-3.58398c-1.942,-2.092 -4.81931,-3.30769 -7.69531,-3.30469zM32,29c-1.10457,0 -2,0.89543 -2,2c0,1.10457 0.89543,2 2,2c1.10457,0 2,-0.89543 2,-2c0,-1.10457 -0.89543,-2 -2,-2zM26,35c-1.10457,0 -2,0.89543 -2,2c0,1.10457 0.89543,2 2,2c1.10457,0 2,-0.89543 2,-2c0,-1.10457 -0.89543,-2 -2,-2zM18,39l-2,2l6,6l2,-2zM14,47c-1.10457,0 -2,0.89543 -2,2c0,1.10457 0.89543,2 2,2c1.10457,0 2,-0.89543 2,-2c0,-1.10457 -0.89543,-2 -2,-2zM8,53c-1.10457,0 -2,0.89543 -2,2c0,1.10457 0.89543,2 2,2c1.10457,0 2,-0.89543 2,-2c0,-1.10457 -0.89543,-2 -2,-2z"></path></g></g></svg>