<svg version="1.1" xmlns="http://www.w3.org/2000/svg" xmlns:xlink="http://www.w3.org/1999/xlink" width="50px" height="50px" viewBox="0,0,256,256"><g fill="#d87171" fill-rule="nonzero" stroke="none" stroke-width="1" stroke-linecap="butt" stroke-linejoin="miter" stroke-miterlimit="10" stroke-dasharray="" stroke-dashoffset="0" font-family="none" font-weight="none" font-size="none" text-anchor="none" style="mix-blend-mode: normal"><g transform="scale(5.12,5.12)"><path d="M0.78125,-0.03125c-0.48047,0.10938 -0.82031,0.53906 -0.8125,1.03125v48c0.00391,0.56641 0.46484,1.02734 1.03125,1.03125h30c0.56641,-0.00391 1.02734,-0.46484 1.03125,-1.03125v-10h-2.0625v8.96875h-27.9375v-45.9375h27.9375v8.96875h2.0625v-10c-0.00391,-0.56641 -0.46484,-1.02734 -1.03125,-1.03125h-30c-0.07422,-0.00781 -0.14453,-0.00781 -0.21875,0zM38.90625,15.09375c-0.375,0.06641 -0.67578,0.33984 -0.78125,0.70313c-0.10547,0.36719 0.00391,0.75781 0.28125,1.01563l7.15625,7.1875h-29.5625c-0.03125,0 -0.0625,0 -0.09375,0c-0.55078,0.02734 -0.98047,0.49609 -0.95312,1.04688c0.02734,0.55078 0.49609,0.98047 1.04688,0.95313h29.5625l-7.15625,7.1875c-0.29687,0.24219 -0.43359,0.62891 -0.34766,1.00391c0.08594,0.37109 0.37891,0.66406 0.75,0.75c0.375,0.08594 0.76172,-0.05078 1.00391,-0.34766l8.90625,-8.875l0.6875,-0.71875l-0.6875,-0.71875l-8.90625,-8.875c-0.20703,-0.22266 -0.50781,-0.33594 -0.8125,-0.3125c-0.03125,0 -0.0625,0 -0.09375,0z"></path></g></g></svg>