<svg version="1.1" xmlns="http://www.w3.org/2000/svg" xmlns:xlink="http://www.w3.org/1999/xlink" width="50px" height="50px" viewBox="0,0,256,256"><g fill="#d8230a" fill-rule="nonzero" stroke="none" stroke-width="1" stroke-linecap="butt" stroke-linejoin="miter" stroke-miterlimit="10" stroke-dasharray="" stroke-dashoffset="0" font-family="none" font-weight="none" font-size="none" text-anchor="none" style="mix-blend-mode: normal"><g transform="scale(5.12,5.12)"><path d="M25,0c-5.53516,0 -10,4.46484 -10,10c0,1.97266 0.5625,3.78906 1.53125,5.3125c-3.55859,-0.73828 -8.11328,-1.3125 -13.53125,-1.3125c-0.03125,0 -0.0625,0 -0.09375,0c-0.51562,0.04688 -0.91016,0.48047 -0.90625,1v7.1875c-1.15625,0.41797 -2,1.51953 -2,2.8125v4c0,1.64453 1.35547,3 3,3h1c2.21094,0 4,-1.78906 4,-4v-2c0,-2.21094 -1.78906,-4 -4,-4v-5.9375c12.4375,0.19141 19.28906,3.31641 20,3.65625v27.46875c-2.92578,-1.69922 -9.85547,-4.91016 -20,-5.125v-9.0625h-2v10c0,0.55078 0.44922,1 1,1c13.35938,0 20.82813,5.35938 21.3125,5.71875c0.04688,0.04688 0.10156,0.08984 0.15625,0.125c0.01172,0 0.01953,0 0.03125,0c0.07813,0.04297 0.16406,0.07422 0.25,0.09375c0.01172,0 0.01953,0 0.03125,0c0.01953,0.01172 0.04297,0.02344 0.0625,0.03125c0.01172,0 0.01953,0 0.03125,0c0.01953,0 0.04297,0 0.0625,0c0.01172,0 0.01953,0 0.03125,0c0.0625,0.00781 0.125,0.00781 0.1875,0c0.13281,-0.02734 0.26172,-0.07812 0.375,-0.15625c0.01953,-0.00781 0.04297,-0.01953 0.0625,-0.03125c0.03516,-0.02734 0.06641,-0.05859 0.09375,-0.09375c0.55859,-0.41016 8.02734,-5.6875 21.3125,-5.6875c0.55078,0 1,-0.44922 1,-1v-10h-2v9.0625c-10.14453,0.21484 -17.07422,3.42578 -20,5.125v-27.46875c0.71094,-0.33984 7.5625,-3.46484 20,-3.65625v5.9375c-2.21094,0 -4,1.78906 -4,4v2c0,2.21094 1.78906,4 4,4h1c1.64453,0 3,-1.35547 3,-3v-4c0,-1.29297 -0.84375,-2.39453 -2,-2.8125v-7.1875c0,-0.55078 -0.44922,-1 -1,-1c-5.43359,0 -10,0.57031 -13.5625,1.3125c0.98438,-1.55078 1.5625,-3.37891 1.5625,-5.3125c0,-5.53516 -4.46484,-10 -10,-10zM25,2c4.46484,0 8,3.53516 8,8c0,2.47266 -1.14453,4.78125 -2.96875,6.1875c-0.01172,0.00391 -0.01953,0.02734 -0.03125,0.03125c-2.53125,0.70313 -4.26172,1.33203 -5,1.65625c-0.73828,-0.32422 -2.46875,-0.95312 -5,-1.65625c-0.01172,-0.00781 -0.01953,-0.02344 -0.03125,-0.03125c-1.83594,-1.41797 -2.96875,-3.60156 -2.96875,-6.1875c0,-4.46484 3.53516,-8 8,-8zM3,24h1c1.19141,0 2,0.80859 2,2v2c0,1.19141 -0.80859,2 -2,2h-1c-0.55469,0 -1,-0.44531 -1,-1v-4c0,-0.55469 0.44531,-1 1,-1zM46,24h1c0.55469,0 1,0.44531 1,1v4c0,0.55469 -0.44531,1 -1,1h-1c-1.19141,0 -2,-0.80859 -2,-2v-2c0,-1.19141 0.80859,-2 2,-2z"></path></g></g></svg>