<svg version="1.1" xmlns="http://www.w3.org/2000/svg" xmlns:xlink="http://www.w3.org/1999/xlink" width="50px" height="50px" viewBox="0,0,256,256"><g fill="#d87171" fill-rule="nonzero" stroke="none" stroke-width="1" stroke-linecap="butt" stroke-linejoin="miter" stroke-miterlimit="10" stroke-dasharray="" stroke-dashoffset="0" font-family="none" font-weight="none" font-size="none" text-anchor="none" style="mix-blend-mode: normal"><g transform="scale(5.12,5.12)"><path d="M24.87891,3c-3.68359,0.08203 -6.37891,1.21094 -8.00391,3.35156c-1.92969,2.53125 -2.37891,6.71484 -1.16797,11.84766c-0.41406,0.52734 -0.78125,1.37891 -0.6875,2.53516c0.29688,2.16406 1.11719,3.05469 1.78906,3.41797c0.31641,1.71875 1.30859,3.67188 2.19141,4.60156v3.5625c-0.57812,1.37109 -2.58984,2.17188 -4.90625,3.08984c-3.90234,1.54688 -8.75781,3.46875 -9.09375,9.53906l-0.05469,1.05469h23.05469c0,-0.03516 -0.00391,-0.07422 -0.00391,-0.10937c-0.01562,-0.02734 -0.02734,-0.0625 -0.04297,-0.08984c-1.23047,-1.98047 -1.95312,-4.30859 -1.95312,-6.80078c0,-1.52344 0.28125,-2.98047 0.76563,-4.33984c0.00391,-0.00781 0.00391,-0.01953 0.00391,-0.02734l-0.03906,-0.05078l0.07422,-0.03906c0.01563,-0.03906 0.03125,-0.07812 0.04688,-0.11719c0.09375,-0.24609 0.1875,-0.48828 0.29688,-0.72656c0.02734,-0.0625 0.05859,-0.12109 0.08594,-0.18359c0.19531,-0.40625 0.40625,-0.80078 0.63672,-1.1875c0.07422,-0.125 0.14844,-0.24609 0.22656,-0.36719c0.10938,-0.17187 0.22656,-0.33984 0.34375,-0.50391c0.04688,-0.0625 0.08203,-0.125 0.12891,-0.18359l-3.54687,1.97266l-4.02344,-2.21484v-2.73047l0.01563,-0.57031l-0.50391,-0.28906c-0.36328,-0.26172 -1.625,-2.24609 -1.80469,-4.13281l-0.01172,-0.89844h-0.91016c-0.14062,-0.05469 -0.58984,-0.53125 -0.77344,-1.89453c-0.07031,-0.83984 0.35547,-1.1875 0.35547,-1.1875l0.58594,-0.39062l-0.17187,-0.68359c-1.21094,-4.78516 -0.92187,-8.58203 0.6875,-10.69531c1.23828,-1.62891 3.41016,-2.49219 6.43359,-2.55859c1.89063,0 3.25,0.47656 3.73438,1.30469l0.24219,0.41797l0.48047,0.06641c1.33203,0.1875 2.01172,0.77344 2.61719,1.77734c1.44922,2.39453 1.19141,7.16797 0.32422,9.59766l-0.31641,0.82031l0.79297,0.39844c0.08984,0.0625 0.32813,0.41016 0.26953,1.125c-0.13281,1.48047 -0.60156,1.875 -0.70312,1.89453h-0.86719l-0.12109,0.85547c-0.28906,2.01172 -1.53125,3.92188 -1.85156,4.17578l-0.50391,0.28516v2.85547l2.28516,-2.28906l0.19922,-0.19922c0.65234,-1.02734 1.45313,-2.53516 1.73438,-3.89844c0.71875,-0.33984 1.61328,-1.22266 1.82031,-3.50391c0.09375,-1.125 -0.21484,-1.95312 -0.64062,-2.48828c0.84766,-2.72656 1.08594,-7.69141 -0.71094,-10.66406c-0.85156,-1.41016 -1.88672,-2.30469 -3.60547,-2.64844c-0.96484,-1.21875 -2.78125,-1.88281 -5.20312,-1.88281zM37,28l-0.59766,3.19922c-0.30078,0.10156 -0.70312,0.19922 -1,0.39844l-2.70312,-1.89844l-3,3l1.80078,2.5c-0.10156,0.39844 -0.30078,0.70313 -0.40234,1.10156l-3.09766,0.5v4.19922l3.09766,0.5c0.10156,0.30078 0.20313,0.69922 0.40234,1l-1.80078,2.69922l3,3l2.70313,-1.79687c0.39844,0.19922 0.69922,0.29688 1.09766,0.39844l0.5,3.19922h4.09766l0.60156,-3.09766c0.30078,-0.10156 0.60156,-0.20312 1,-0.40234l2.70313,1.80078l3,-3l-1.90234,-2.60156c0.19922,-0.39844 0.30078,-0.80078 0.40234,-1.10156l3.09766,-0.59766v-4.19922l-3.19922,-0.5c-0.10156,-0.30078 -0.19922,-0.69922 -0.39844,-1l1.79688,-2.70312l-2.89844,-2.89844l-2.60156,1.89844c-0.30078,-0.19922 -0.69922,-0.29687 -1,-0.39844l-0.5,-3.19922zM38.69922,30h0.80078l0.40234,2.69922l0.59766,0.20313c0.60156,0.19922 1.19922,0.39844 1.69922,0.69531l0.60156,0.40234l2.29688,-1.69922l0.5,0.5l-1.59766,2.29688l0.30078,0.5c0.30078,0.60156 0.5,1.20313 0.69922,1.80469l0.19922,0.59766l2.80078,0.40234v0.79688l-2.69922,0.60156l-0.20312,0.60156c-0.19922,0.59766 -0.39844,1.19531 -0.69531,1.69531l-0.40234,0.60156l1.69922,2.30078l-0.60156,0.59766l-2.29687,-1.59766l-0.5,0.30078c-0.60156,0.30078 -1.19922,0.5 -1.80078,0.69922l-0.59766,0.19922l-0.5,2.80078h-0.80469l-0.39844,-2.69922l-0.60156,-0.20312c-0.59766,-0.19922 -1.19531,-0.39844 -1.69531,-0.69531l-0.60156,-0.40234l-2.39844,1.59766l-0.60156,-0.59766l1.60156,-2.30078l-0.30469,-0.5c-0.29687,-0.60156 -0.49609,-1.29687 -0.69531,-1.79687l-0.20312,-0.60156l-2.69922,-0.5v-0.80078l2.80078,-0.5l0.10156,-0.69922c0.09766,-0.5 0.29688,-1.10156 0.59766,-1.60156l0.40234,-0.5l-1.60156,-2.29687l0.60156,-0.60156l2.29688,1.60156l0.5,-0.20312c0.69922,-0.30078 1.30078,-0.59766 1.89844,-0.79687l0.60156,-0.10156zM20.77344,33.19531l0.00391,0.00391l2.48828,1.39063l-2.27734,2.82813l-1.86719,-2.26562c0.71484,-0.53906 1.29297,-1.16797 1.65234,-1.95703zM39,35c-2.19531,0 -4,1.80469 -4,4c0,2.19531 1.80469,4 4,4c2.16406,0 4,-1.75391 4,-4c0,-2.19531 -1.80469,-4 -4,-4zM17.375,36.17578l2.85547,3.46094c0.1875,0.23047 0.47656,0.36719 0.77734,0.36328c0.30078,0 0.58203,-0.14062 0.77344,-0.375l1.96094,-2.4375l0.75781,0.61328c0,0 -1.99219,2.96875 -2.5,6.19922h-14.87891c0.73438,-3.97266 4.27734,-5.375 7.70703,-6.73437c0.88672,-0.35156 1.75,-0.69922 2.54688,-1.08984zM39,37c1.10547,0 2,0.89453 2,2c0,1.20313 -0.86328,2 -2,2c-1.10547,0 -2,-0.89453 -2,-2c0,-1.10547 0.89453,-2 2,-2z"></path></g></g></svg>