<svg version="1.1" xmlns="http://www.w3.org/2000/svg" xmlns:xlink="http://www.w3.org/1999/xlink" width="24px" height="24px" viewBox="0,0,256,256"><g fill="#a65f5f" fill-rule="nonzero" stroke="none" stroke-width="1" stroke-linecap="butt" stroke-linejoin="miter" stroke-miterlimit="10" stroke-dasharray="" stroke-dashoffset="0" font-family="none" font-weight="none" font-size="none" text-anchor="none" style="mix-blend-mode: normal"><g transform="scale(10.66667,10.66667)"><path d="M12,3l-6,6h-4v6h4l6,6zM14,3.09961v2c3.1875,0.46875 5.67261,3.04761 5.9707,6.25195c0.01987,0.21362 0.0293,0.42969 0.0293,0.64844c0,3.5 -2.6,6.40039 -6,6.90039v2c4.5,-0.5 8,-4.30039 8,-8.90039c0,-4.6 -3.5,-8.40039 -8,-8.90039zM14,7.09961v2.09961c1.2,0.4 2,1.50078 2,2.80078c0,1.3 -0.8,2.40078 -2,2.80078v2.09961c2.3,-0.5 4,-2.50039 4,-4.90039c0,-2.4 -1.7,-4.40039 -4,-4.90039z"></path></g></g></svg>