<svg version="1.1" xmlns="http://www.w3.org/2000/svg" xmlns:xlink="http://www.w3.org/1999/xlink" width="24px" height="24px" viewBox="0,0,256,256"><g fill="#d87171" fill-rule="nonzero" stroke="none" stroke-width="1" stroke-linecap="butt" stroke-linejoin="miter" stroke-miterlimit="10" stroke-dasharray="" stroke-dashoffset="0" font-family="none" font-weight="none" font-size="none" text-anchor="none" style="mix-blend-mode: normal"><g transform="scale(10.66667,10.66667)"><path d="M12,12c1.92969,0 3.5,-1.57031 3.5,-3.5c0,-1.92969 -1.57031,-3.5 -3.5,-3.5c-1.92969,0 -3.5,1.57031 -3.5,3.5c0,1.92969 1.57031,3.5 3.5,3.5zM12,6c1.37891,0 2.5,1.12158 2.5,2.5c0,1.37842 -1.12109,2.5 -2.5,2.5c-1.37891,0 -2.5,-1.12158 -2.5,-2.5c0,-1.37842 1.12109,-2.5 2.5,-2.5z"></path><path d="M4.5,10c1.37891,0 2.5,-1.12158 2.5,-2.5c0,-1.37842 -1.12109,-2.5 -2.5,-2.5c-1.37891,0 -2.5,1.12158 -2.5,2.5c0,1.37842 1.12109,2.5 2.5,2.5zM4.5,6c0.82715,0 1.5,0.67285 1.5,1.5c0,0.82715 -0.67285,1.5 -1.5,1.5c-0.82715,0 -1.5,-0.67285 -1.5,-1.5c0,-0.82715 0.67285,-1.5 1.5,-1.5z"></path><path d="M19.5,10c1.37891,0 2.5,-1.12158 2.5,-2.5c0,-1.37842 -1.12109,-2.5 -2.5,-2.5c-1.37891,0 -2.5,1.12158 -2.5,2.5c0,1.37842 1.12109,2.5 2.5,2.5zM19.5,6c0.82715,0 1.5,0.67285 1.5,1.5c0,0.82715 -0.67285,1.5 -1.5,1.5c-0.82715,0 -1.5,-0.67285 -1.5,-1.5c0,-0.82715 0.67285,-1.5 1.5,-1.5z"></path><path d="M22.91992,11.53174c-0.79883,-0.4707 -2.04102,-1.03174 -3.41992,-1.03174c-1.37891,0 -2.62109,0.56104 -3.41992,1.03174c-0.65021,0.38373 -1.05389,1.12177 -1.07294,1.9339c-0.91144,-0.27325 -1.93341,-0.46564 -3.00714,-0.46564c-1.07373,0 -2.0957,0.19238 -3.00714,0.46564c-0.01904,-0.81213 -0.42273,-1.55017 -1.07294,-1.9339c-0.79883,-0.4707 -2.04102,-1.03174 -3.41992,-1.03174c-1.37891,0 -2.62109,0.56104 -3.41992,1.03174c-0.66602,0.39307 -1.08008,1.15625 -1.08008,1.9917v0.32031c0,0.6377 0.48047,1.15625 1.07129,1.15625h4.7926c-0.54352,0.55334 -0.86389,1.30054 -0.86389,2.10498v0.45752c0,0.79248 0.64063,1.4375 1.42871,1.4375h11.14258c0.78809,0 1.42871,-0.64502 1.42871,-1.4375v-0.45752c0,-0.80444 -0.32031,-1.55164 -0.86383,-2.10498h4.79254c0.59082,0 1.07129,-0.51855 1.07129,-1.15625v-0.32031c0,-0.83545 -0.41406,-1.59863 -1.08008,-1.9917zM1,13.84375v-0.32031c0,-0.47607 0.23047,-0.91943 0.58789,-1.13037c0.69141,-0.40723 1.75781,-0.89307 2.91211,-0.89307c1.1543,0 2.2207,0.48584 2.91211,0.89307c0.35742,0.21094 0.58789,0.6543 0.58789,1.13037v0.28845c-0.15857,0.06201 -0.31293,0.12408 -0.461,0.18811h-6.46771c-0.01172,0 -0.07129,-0.05225 -0.07129,-0.15625zM18,17.5625c0,0.24121 -0.19238,0.4375 -0.42871,0.4375h-11.14258c-0.23633,0 -0.42871,-0.19629 -0.42871,-0.4375v-0.45752c0,-0.75488 0.41602,-1.43896 1.08594,-1.78613c1.15918,-0.60156 2.9541,-1.31885 4.91406,-1.31885c1.95996,0 3.75488,0.71729 4.91406,1.31885c0.66992,0.34717 1.08594,1.03125 1.08594,1.78613zM23,13.84375c0,0.104 -0.05957,0.15625 -0.07129,0.15625h-6.46771c-0.14807,-0.06403 -0.30243,-0.1261 -0.461,-0.18811v-0.28845c0,-0.47607 0.23047,-0.91943 0.58789,-1.13037c0.69141,-0.40723 1.75781,-0.89307 2.91211,-0.89307c1.1543,0 2.2207,0.48584 2.91211,0.89307c0.35742,0.21094 0.58789,0.6543 0.58789,1.13037z"></path></g></g></svg>