<svg version="1.1" xmlns="http://www.w3.org/2000/svg" xmlns:xlink="http://www.w3.org/1999/xlink" width="64px" height="64px" viewBox="0,0,256,256"><g fill="none" fill-rule="nonzero" stroke="none" stroke-width="1" stroke-linecap="butt" stroke-linejoin="miter" stroke-miterlimit="10" stroke-dasharray="" stroke-dashoffset="0" font-family="none" font-weight="none" font-size="none" text-anchor="none" style="mix-blend-mode: normal"><g transform="scale(4,4)"><path d="M61,25.15l-20,-3.06l-9,-20.09l-9,20.09l-20,3.06l14.5,14.85l-4.5,22l19,-10.91l19,10.91l-4.5,-22z" fill="#f8cf48"></path><path d="M38,39l6,6h-4v4l-5,-5l2,-3z" fill="#1895aa"></path><path d="M26,39l-6,6h4v4l5,-5l-2,-3z" fill="#1895aa"></path><path d="M43,34l-2.44,-2.78l0.34,-3.69l-3.61,-0.81l-1.89,-3.18l-3.4,1.46l-3.4,-1.46l-1.89,3.18l-3.61,0.81l0.34,3.69l-2.44,2.78l2.44,2.78l-0.34,3.69l3.61,0.81l1.87,3.14l0.02,0.04l3.4,-1.46l3.4,1.46l0.02,-0.04l1.87,-3.14l3.61,-0.81l-0.34,-3.69z" fill="#e05b69"></path><circle cx="32" cy="34" r="6" fill="#f9f6ed"></circle><path d="M55,2h-2c0,3.86599 -3.13401,7 -7,7v2c3.86599,0 7,3.13401 7,7h2c0,-3.86599 3.13401,-7 7,-7v-2c-3.86599,0 -7,-3.13401 -7,-7z" fill="#91e8e8"></path><path d="M8,41h-2c0,2.20914 -1.79086,4 -4,4v2c2.20914,0 4,1.79086 4,4h2c0,-2.20914 1.79086,-4 4,-4v-2c-2.20914,0 -4,-1.79086 -4,-4z" fill="#91e8e8"></path><path d="M20,19h-2c0,-5.52285 -4.47715,-10 -10,-10v-2c6.62742,0 12,5.37258 12,12z" fill="#91e8e8"></path><rect x="4" y="7" width="2" height="2" fill="#91e8e8"></rect><path d="M55,45h-2c0,-3.86599 3.13401,-7 7,-7v2c-2.76142,0 -5,2.23858 -5,5z" fill="#91e8e8"></path><path d="M28,62h-2c0,-2.76142 2.23858,-5 5,-5v2c-1.65685,0 -3,1.34315 -3,3z" fill="#91e8e8"></path><rect x="33" y="57" width="2" height="2" fill="#91e8e8"></rect></g></g></svg>