<svg version="1.1" xmlns="http://www.w3.org/2000/svg" xmlns:xlink="http://www.w3.org/1999/xlink" width="68px" height="68px" viewBox="0,0,256,256"><g fill="#d87171" fill-rule="nonzero" stroke="none" stroke-width="1" stroke-linecap="butt" stroke-linejoin="miter" stroke-miterlimit="10" stroke-dasharray="" stroke-dashoffset="0" font-family="none" font-weight="none" font-size="none" text-anchor="none" style="mix-blend-mode: normal"><g transform="scale(3.76471,3.76471)"><path d="M21.1875,1.50586c-2.19364,0 -3.99438,1.6368 -4.29102,3.75h-1.71094c-2.189,0 -3.98853,1.63096 -4.28906,3.73828h-1.71094c-2.39844,0 -4.34961,1.95703 -4.34961,4.36133v48.78906c0,2.39844 1.95117,4.34961 4.34961,4.34961h37.62891c2.20849,0 3.98917,-1.60961 4.2793,-3.73828h1.7207c2.16979,0 3.98321,-1.6454 4.2793,-3.75h1.71875c2.3999,0 4.35156,-1.95361 4.35156,-4.35352v-42.56641c0,-0.02309 -0.01055,-0.04381 -0.01367,-0.06641c-0.00276,-0.02054 -0.00449,-0.03856 -0.00977,-0.05859c-0.02234,-0.08496 -0.05987,-0.16534 -0.12305,-0.22852l-10.08984,-10.08008c-0.06317,-0.06317 -0.14356,-0.10071 -0.22852,-0.12305c-0.02001,-0.00525 -0.03808,-0.00703 -0.05859,-0.00977c-0.02256,-0.00313 -0.0434,-0.01367 -0.06641,-0.01367zM21.1875,2.50586h30.88672v7.64258c0,1.34424 1.09326,2.4375 2.4375,2.4375h7.65234v42.06641c0,1.84863 -1.50293,3.35352 -3.35156,3.35352h-2.1582h-35.4668h-0.00195c-0.23024,0 -0.45655,-0.0239 -0.67383,-0.06836h-0.00195c-0.21786,-0.0447 -0.42665,-0.11043 -0.62695,-0.19531c-0.20048,-0.08494 -0.39193,-0.18993 -0.57031,-0.31055c-0.35582,-0.24082 -0.66347,-0.54848 -0.9043,-0.9043v-0.00195c-0.04232,-0.0626 -0.07126,-0.13372 -0.10937,-0.19922c-0.17857,-0.30725 -0.32288,-0.63923 -0.39648,-0.99805c-0.00439,-0.0214 -0.00188,-0.04486 -0.00586,-0.06641c-0.0363,-0.19723 -0.06055,-0.39985 -0.06055,-0.60742l-0.00195,-6.09375v-42.70313c0,-1.84863 1.50488,-3.35156 3.35352,-3.35156zM53.07422,3.21289l8.38281,8.37305h-6.94531c-0.79248,0 -1.4375,-0.64502 -1.4375,-1.4375zM21.33594,5.50586c-0.27637,0 -0.5,0.22363 -0.5,0.5c0,0.27637 0.22363,0.5 0.5,0.5h16.19727c0.27637,0 0.5,-0.22363 0.5,-0.5c0,-0.27637 -0.22363,-0.5 -0.5,-0.5zM15.18555,6.25586h1.64844v48.39648c0,0.29999 0.03176,0.59388 0.08984,0.87695v0.00195c0.11627,0.56544 0.34144,1.09005 0.6543,1.55273v0.00195c0.15639,0.23112 0.33652,0.4459 0.5332,0.64258v0.00195c0.1969,0.19693 0.41114,0.37474 0.64258,0.53125h0.00195c0.23159,0.1566 0.47801,0.29011 0.73828,0.40039c0.2601,0.11022 0.53156,0.19586 0.81445,0.25391h0.00195c0.28231,0.0578 0.57586,0.08984 0.875,0.08984h0.00195h34.91602c-0.28369,1.55615 -1.66455,2.75 -3.28906,2.75h-2.16016h-35.46875c-1.84717,0 -3.34961,-1.5083 -3.34961,-3.36133v-48.78906c0,-1.84717 1.50244,-3.34961 3.34961,-3.34961zM9.18555,9.99414h1.65039v48.40039c0,2.4043 1.95117,4.36133 4.34961,4.36133h34.91797c-0.27686,1.57178 -1.63477,2.73828 -3.28906,2.73828h-37.62891c-1.84717,0 -3.34961,-1.50244 -3.34961,-3.34961v-48.78906c0,-1.85303 1.50244,-3.36133 3.34961,-3.36133zM21.33594,11.56836c-0.27637,0 -0.5,0.22363 -0.5,0.5c0,0.27637 0.22363,0.5 0.5,0.5h4.69336c0.27637,0 0.5,-0.22363 0.5,-0.5c0,-0.27637 -0.22363,-0.5 -0.5,-0.5zM30.69531,11.56836c-0.27637,0 -0.5,0.22363 -0.5,0.5c0,0.27637 0.22363,0.5 0.5,0.5h14.58398c0.27637,0 0.5,-0.22363 0.5,-0.5c0,-0.27637 -0.22363,-0.5 -0.5,-0.5zM21.33594,17.63086c-0.27637,0 -0.5,0.22363 -0.5,0.5c0,0.27637 0.22363,0.5 0.5,0.5h14.35937c0.27637,0 0.5,-0.22363 0.5,-0.5c0,-0.27637 -0.22363,-0.5 -0.5,-0.5zM40,17.63086c-0.27637,0 -0.5,0.22363 -0.5,0.5c0,0.27637 0.22363,0.5 0.5,0.5h18.66602c0.27637,0 0.5,-0.22363 0.5,-0.5c0,-0.27637 -0.22363,-0.5 -0.5,-0.5zM21.33594,23.69336c-0.27637,0 -0.5,0.22363 -0.5,0.5c0,0.27637 0.22363,0.5 0.5,0.5h3.27734c0.27637,0 0.5,-0.22363 0.5,-0.5c0,-0.27637 -0.22363,-0.5 -0.5,-0.5zM28,23.69336c-0.27637,0 -0.5,0.22363 -0.5,0.5c0,0.27637 0.22363,0.5 0.5,0.5h22.66406c0.27637,0 0.5,-0.22363 0.5,-0.5c0,-0.27637 -0.22363,-0.5 -0.5,-0.5zM54.66406,23.69336c-0.27637,0 -0.5,0.22363 -0.5,0.5c0,0.27637 0.22363,0.5 0.5,0.5h4.00195c0.27637,0 0.5,-0.22363 0.5,-0.5c0,-0.27637 -0.22363,-0.5 -0.5,-0.5zM21.33594,29.75586c-0.27637,0 -0.5,0.22363 -0.5,0.5c0,0.27637 0.22363,0.5 0.5,0.5h8.27734c0.27637,0 0.5,-0.22363 0.5,-0.5c0,-0.27637 -0.22363,-0.5 -0.5,-0.5zM32.48828,29.75586c-0.27637,0 -0.5,0.22363 -0.5,0.5c0,0.27637 0.22363,0.5 0.5,0.5h14.75c0.27637,0 0.5,-0.22363 0.5,-0.5c0,-0.27637 -0.22363,-0.5 -0.5,-0.5zM50.42578,29.75586c-0.27637,0 -0.5,0.22363 -0.5,0.5c0,0.27637 0.22363,0.5 0.5,0.5h8.24023c0.27637,0 0.5,-0.22363 0.5,-0.5c0,-0.27637 -0.22363,-0.5 -0.5,-0.5zM21.33594,35.81836c-0.27637,0 -0.5,0.22363 -0.5,0.5c0,0.27637 0.22363,0.5 0.5,0.5h14.58984c0.27637,0 0.5,-0.22363 0.5,-0.5c0,-0.27637 -0.22363,-0.5 -0.5,-0.5zM40.23828,35.81836c-0.27637,0 -0.5,0.22363 -0.5,0.5c0,0.27637 0.22363,0.5 0.5,0.5h18.42773c0.27637,0 0.5,-0.22363 0.5,-0.5c0,-0.27637 -0.22363,-0.5 -0.5,-0.5zM21.33594,41.88086c-0.27637,0 -0.5,0.22363 -0.5,0.5c0,0.27637 0.22363,0.5 0.5,0.5h26.65234c0.27637,0 0.5,-0.22363 0.5,-0.5c0,-0.27637 -0.22363,-0.5 -0.5,-0.5zM53.05078,41.88086c-0.27637,0 -0.5,0.22363 -0.5,0.5c0,0.27637 0.22363,0.5 0.5,0.5h5.61523c0.27637,0 0.5,-0.22363 0.5,-0.5c0,-0.27637 -0.22363,-0.5 -0.5,-0.5zM21.33594,47.94336c-0.27637,0 -0.5,0.22363 -0.5,0.5c0,0.27637 0.22363,0.5 0.5,0.5h6.66406c0.27637,0 0.5,-0.22363 0.5,-0.5c0,-0.27637 -0.22363,-0.5 -0.5,-0.5zM31.55078,47.94336c-0.27637,0 -0.5,0.22363 -0.5,0.5c0,0.27637 0.22363,0.5 0.5,0.5h27.11524c0.27637,0 0.5,-0.22363 0.5,-0.5c0,-0.27637 -0.22363,-0.5 -0.5,-0.5zM21.33594,54.00586c-0.27637,0 -0.5,0.22363 -0.5,0.5c0,0.27637 0.22363,0.5 0.5,0.5h18.66406c0.27637,0 0.5,-0.22363 0.5,-0.5c0,-0.27637 -0.22363,-0.5 -0.5,-0.5z"></path></g></g></svg>