<svg version="1.1" xmlns="http://www.w3.org/2000/svg" xmlns:xlink="http://www.w3.org/1999/xlink" width="128px" height="128px" viewBox="0,0,256,256"><g fill="none" fill-rule="nonzero" stroke="none" stroke-width="1" stroke-linecap="butt" stroke-linejoin="miter" stroke-miterlimit="10" stroke-dasharray="" stroke-dashoffset="0" font-family="none" font-weight="none" font-size="none" text-anchor="none" style="mix-blend-mode: normal"><g transform="scale(2,2)"><path d="M118.938,109.79l-18.184,-29.42c0.873,-0.567 1.88,-0.946 2.968,-1.069c3.146,-0.355 5.811,-2.288 7.126,-5.168c1.315,-2.88 1.031,-6.158 -0.761,-8.769c-2.027,-2.954 -1.44,-7.041 1.338,-9.303c2.455,-2 3.651,-5.065 3.2,-8.2c-0.45,-3.134 -2.462,-5.739 -5.381,-6.966c-3.303,-1.389 -5.018,-5.145 -3.905,-8.549c0.984,-3.01 0.333,-6.236 -1.74,-8.629c-2.074,-2.392 -5.176,-3.5 -8.292,-2.95c-3.538,0.616 -7.004,-1.615 -7.907,-5.082c-0.8,-3.064 -3.091,-5.425 -6.129,-6.318c-3.04,-0.892 -6.243,-0.143 -8.572,2.001c-2.634,2.426 -6.763,2.427 -9.399,0c-2.329,-2.146 -5.535,-2.893 -8.572,-2.001c-3.038,0.893 -5.33,3.254 -6.129,6.318c-0.904,3.466 -4.377,5.699 -7.906,5.082c-3.122,-0.548 -6.22,0.557 -8.293,2.95c-2.074,2.393 -2.724,5.619 -1.741,8.629c1.113,3.405 -0.602,7.16 -3.904,8.549c-2.919,1.228 -4.931,3.832 -5.381,6.966c-0.45,3.134 0.746,6.2 3.201,8.2c2.777,2.263 3.365,6.349 1.337,9.303c-1.792,2.611 -2.076,5.889 -0.761,8.769c1.315,2.88 3.979,4.813 7.125,5.168c1.089,0.123 2.096,0.502 2.969,1.069l-18.183,29.42c-0.183,0.295 -0.199,0.664 -0.043,0.974c0.156,0.31 0.46,0.518 0.806,0.548l16.452,1.459l8.153,13.739c0.178,0.301 0.501,0.486 0.851,0.49c0.003,0 0.006,0 0.009,0c0.346,0 0.668,-0.179 0.851,-0.474l17.209,-27.844c1.677,1.887 4.056,2.989 6.651,2.989c2.595,0 4.974,-1.102 6.65,-2.988l17.209,27.844c0.183,0.295 0.504,0.474 0.851,0.474c0.003,0 0.006,0 0.009,0c0.35,-0.003 0.673,-0.189 0.852,-0.49l8.153,-13.739l16.451,-1.459c0.346,-0.031 0.651,-0.238 0.807,-0.548c0.156,-0.31 0.137,-0.681 -0.045,-0.975z" fill="#e6e7e8"></path><path d="M95.416,76.107c-1.81,1.514 -2.924,3.808 -2.848,6.327v0c0.182,5.985 -6.078,10.008 -11.447,7.357c-3.704,-1.829 -8.191,-0.511 -10.318,3.03c-0.021,0.035 -0.047,0.063 -0.068,0.098l17.975,29.081l8.415,-14.18l16.962,-1.505z" fill="#fcc419"></path><path d="M81.121,89.791c-0.707,-0.349 -1.442,-0.582 -2.184,-0.708l14.951,24.191l3.236,-5.453l6.263,-0.556l-12.318,-19.931c-2.152,2.95 -6.26,4.278 -9.948,2.457z" fill="#fcc419"></path><path d="M57.196,92.82c-2.127,-3.541 -6.614,-4.859 -10.318,-3.03c-5.369,2.652 -11.629,-1.371 -11.447,-7.357v0c0.076,-2.519 -1.038,-4.813 -2.848,-6.327l-18.671,30.209l16.962,1.505l8.416,14.18l17.974,-29.082c-0.021,-0.035 -0.047,-0.063 -0.068,-0.098z" fill="#fcc419"></path><path d="M46.878,89.791c-3.688,1.821 -7.796,0.493 -9.948,-2.456l-12.318,19.931l6.263,0.556l3.236,5.453l14.951,-24.191c-0.741,0.125 -1.477,0.357 -2.184,0.707z" fill="#fcc419"></path><path d="M69.377,8.104v0c4.405,-4.057 11.544,-1.961 13.056,3.834v0c1.043,3.997 4.977,6.525 9.046,5.814v0c5.899,-1.032 10.771,4.592 8.911,10.284v0c-1.283,3.926 0.659,8.181 4.467,9.782v0c5.52,2.321 6.579,9.686 1.936,13.469v0c-3.202,2.609 -3.868,7.238 -1.53,10.644v0c3.389,4.937 0.298,11.705 -5.653,12.378v0c-4.105,0.464 -7.167,3.998 -7.042,8.127v0c0.182,5.985 -6.078,10.008 -11.447,7.357v0c-3.704,-1.829 -8.191,-0.511 -10.318,3.03v0c-3.083,5.133 -10.524,5.133 -13.607,0v0c-2.127,-3.541 -6.614,-4.859 -10.318,-3.03v0c-5.369,2.652 -11.629,-1.371 -11.447,-7.357v0c0.125,-4.129 -2.937,-7.663 -7.042,-8.127v0c-5.95,-0.672 -9.041,-7.44 -5.653,-12.378v0c2.338,-3.406 1.672,-8.035 -1.53,-10.644v0c-4.642,-3.782 -3.584,-11.147 1.937,-13.469v0c3.808,-1.601 5.751,-5.855 4.467,-9.782v0c-1.861,-5.692 3.012,-11.315 8.911,-10.284v0c4.069,0.712 8.003,-1.817 9.046,-5.814v0c1.512,-5.794 8.651,-7.89 13.056,-3.834v0c3.039,2.799 7.715,2.799 10.754,0z" fill="#fa5252"></path><circle cx="64" cy="51.335" r="33.222" fill="#ffffff"></circle><g><path d="M79.795,49.647h1.275c1.934,0 3.502,1.568 3.502,3.502v0c0,1.931 -1.564,3.498 -3.495,3.502l-1.59,0.003h1.469c1.792,0 3.245,1.453 3.245,3.245v0c0,1.794 -1.456,3.248 -3.25,3.245l-3.954,-0.007h2.729c1.637,0 2.963,1.327 2.963,2.963v0.005c0,1.633 -1.321,2.958 -2.955,2.959c-3.841,0.002 -12.032,0.005 -18.493,0.007c-3.657,0.001 -6.621,-2.963 -6.621,-6.621v-15.419c1.889,-2.292 4.651,-6.416 5.859,-9.066c2.706,-5.935 2.022,-10.264 3.956,-10.264c3.12,0 4.972,4.056 4.972,7.226c0,2.531 -0.58,3.344 -1.131,4.97c-0.558,1.648 -0.266,2.886 1.297,2.886h11.975c1.895,0 3.432,1.537 3.432,3.432v0c0,1.895 -1.537,3.431 -3.432,3.431h-1.753z" fill="#fcc419"></path><path d="M54.618,66.988v-20.322c0,-1.151 -0.935,-2.084 -2.084,-2.084h-7.429c-1.151,0 -2.084,0.932 -2.084,2.084v20.322c0,1.149 0.932,2.084 2.084,2.084h7.429c1.149,-0.001 2.084,-0.935 2.084,-2.084z" fill="#fcc419"></path><path d="M52.534,44.582h-7.429c-1.151,0 -2.084,0.932 -2.084,2.084v3c0,-1.151 0.932,-2.084 2.084,-2.084h7.429c1.149,0 2.084,0.932 2.084,2.084v-3c0,-1.152 -0.935,-2.084 -2.084,-2.084z" fill="#ffffff"></path><path d="M50.131,65.672c-0.882,0 -1.595,-0.713 -1.595,-1.595c0,-0.882 0.713,-1.595 1.595,-1.595c0.882,0 1.595,0.713 1.595,1.595c0,0.882 -0.713,1.595 -1.595,1.595z" fill="#ffffff"></path></g><g fill="#3a2c60"><path d="M114.937,105.79l-18.183,-29.42c0.873,-0.567 1.88,-0.946 2.968,-1.069c3.146,-0.355 5.811,-2.288 7.126,-5.168c1.315,-2.88 1.031,-6.158 -0.761,-8.769c-2.027,-2.954 -1.44,-7.041 1.338,-9.303c2.455,-2 3.651,-5.065 3.2,-8.2c-0.45,-3.134 -2.462,-5.739 -5.381,-6.966c-3.303,-1.389 -5.018,-5.145 -3.905,-8.549c0.984,-3.01 0.333,-6.236 -1.74,-8.629c-2.074,-2.392 -5.176,-3.5 -8.292,-2.95c-3.538,0.616 -7.004,-1.615 -7.907,-5.082c-0.8,-3.064 -3.091,-5.425 -6.129,-6.318c-3.04,-0.892 -6.243,-0.143 -8.572,2.001c-2.634,2.426 -6.763,2.427 -9.399,0c-2.329,-2.146 -5.535,-2.893 -8.572,-2.001c-3.038,0.893 -5.33,3.254 -6.129,6.318c-0.904,3.466 -4.377,5.699 -7.906,5.082c-3.122,-0.548 -6.22,0.557 -8.293,2.95c-2.074,2.393 -2.724,5.619 -1.741,8.629c1.113,3.405 -0.602,7.16 -3.904,8.549c-2.919,1.228 -4.931,3.832 -5.381,6.966c-0.45,3.134 0.746,6.2 3.201,8.2c2.777,2.263 3.365,6.349 1.337,9.303c-1.792,2.611 -2.076,5.889 -0.761,8.769c1.315,2.88 3.979,4.813 7.125,5.168c1.089,0.123 2.096,0.502 2.969,1.069l-18.183,29.42c-0.183,0.295 -0.199,0.664 -0.043,0.974c0.156,0.31 0.46,0.518 0.806,0.548l16.452,1.459l8.153,13.739c0.178,0.301 0.501,0.486 0.851,0.49c0.003,0 0.006,0 0.009,0c0.346,0 0.668,-0.179 0.851,-0.474l17.209,-27.844c1.677,1.887 4.056,2.989 6.651,2.989c2.595,0 4.974,-1.102 6.65,-2.988l17.209,27.844c0.183,0.295 0.504,0.474 0.851,0.474c0.003,0 0.006,0 0.009,0c0.35,-0.003 0.673,-0.189 0.852,-0.49l8.153,-13.739l16.451,-1.459c0.346,-0.031 0.651,-0.238 0.807,-0.548c0.156,-0.31 0.137,-0.681 -0.046,-0.975zM32.769,77.709c1.083,1.272 1.717,2.926 1.663,4.695c-0.054,1.786 0.426,3.481 1.319,4.936l-11.665,18.874l-8.471,-0.752zM30.963,106.824l-4.648,-0.412l10.759,-17.408c0.442,0.436 0.921,0.843 1.459,1.189c2.487,1.598 5.512,1.848 8.214,0.734l-12.619,20.417l-2.394,-4.033c-0.163,-0.278 -0.45,-0.458 -0.771,-0.487zM39.307,120.07l-4.027,-6.786l14.378,-23.264c2.458,-0.251 4.953,0.827 6.416,2.92zM64,95.67c-2.458,0 -4.681,-1.258 -5.947,-3.365c-1.658,-2.76 -4.642,-4.324 -7.7,-4.324c-1.326,0 -2.667,0.294 -3.918,0.913c-2.205,1.088 -4.754,0.944 -6.821,-0.384c-2.068,-1.329 -3.258,-3.589 -3.183,-6.046c0.14,-4.614 -3.343,-8.633 -7.93,-9.151c-2.442,-0.276 -4.51,-1.775 -5.531,-4.011c-1.021,-2.236 -0.8,-4.78 0.591,-6.807c2.611,-3.806 1.854,-9.07 -1.723,-11.985c-1.906,-1.552 -2.834,-3.932 -2.485,-6.365c0.35,-2.433 1.912,-4.454 4.177,-5.407c4.254,-1.79 6.464,-6.628 5.03,-11.014c-0.764,-2.336 -0.259,-4.84 1.351,-6.698c1.61,-1.858 4.019,-2.714 6.437,-2.291c4.552,0.799 9.021,-2.081 10.187,-6.546c0.62,-2.378 2.398,-4.211 4.757,-4.904c2.359,-0.691 4.846,-0.111 6.654,1.553c3.395,3.127 8.715,3.126 12.109,0c1.809,-1.665 4.294,-2.244 6.653,-1.553c2.358,0.693 4.137,2.526 4.757,4.904c1.166,4.465 5.646,7.342 10.187,6.546c2.421,-0.424 4.827,0.433 6.437,2.29c1.61,1.857 2.115,4.361 1.352,6.698c-1.434,4.387 0.775,9.225 5.03,11.014c2.266,0.953 3.827,2.974 4.177,5.407c0.35,2.433 -0.579,4.812 -2.484,6.364c-3.578,2.915 -4.335,8.18 -1.723,11.985c1.391,2.026 1.611,4.57 0.59,6.806c-1.021,2.236 -3.089,3.736 -5.531,4.012c-4.586,0.518 -8.069,4.537 -7.93,9.151c0.075,2.457 -1.115,4.717 -3.183,6.046c-2.067,1.328 -4.617,1.472 -6.822,0.384c-4.135,-2.043 -9.24,-0.546 -11.617,3.412c-1.267,2.108 -3.49,3.366 -5.948,3.366zM88.692,120.07l-16.767,-27.129c1.464,-2.093 3.958,-3.171 6.417,-2.92l14.378,23.263zM97.037,106.824c-0.321,0.028 -0.608,0.209 -0.772,0.486l-2.393,4.033l-12.619,-20.417c2.701,1.113 5.727,0.865 8.214,-0.734c0.538,-0.346 1.017,-0.752 1.459,-1.188l10.759,17.408zM103.914,106.214l-11.666,-18.874c0.894,-1.454 1.374,-3.15 1.32,-4.936c-0.054,-1.768 0.58,-3.423 1.663,-4.694l17.153,27.753z"></path><path d="M85.979,46.215c0,-2.444 -1.988,-4.432 -4.432,-4.432h-11.975c-0.245,0 -0.425,-0.046 -0.479,-0.123c-0.085,-0.118 -0.167,-0.571 0.129,-1.443c0.114,-0.337 0.229,-0.638 0.341,-0.927c0.434,-1.128 0.843,-2.193 0.843,-4.363c0,-3.449 -2.075,-8.226 -5.972,-8.226c-1.85,0 -2.255,1.833 -2.769,4.154c-0.38,1.716 -0.9,4.067 -2.098,6.695c-0.932,2.044 -2.868,5.058 -4.54,7.317c-0.561,-0.775 -1.466,-1.284 -2.494,-1.284h-7.429c-1.7,0 -3.083,1.383 -3.083,3.083v20.322c0,1.7 1.383,3.083 3.083,3.083h7.429c1.522,0 2.781,-1.11 3.031,-2.561c0.096,0.108 0.181,0.224 0.285,0.328c1.439,1.439 3.352,2.231 5.387,2.231c0.001,0 0.002,0 0.002,0l18.493,-0.008c2.181,0 3.955,-1.776 3.955,-3.963c0,-0.906 -0.306,-1.742 -0.818,-2.41c0.396,-0.2 0.762,-0.464 1.085,-0.787c0.804,-0.802 1.246,-1.869 1.246,-3.004c0,-1.255 -0.547,-2.384 -1.416,-3.162c1.085,-0.823 1.787,-2.125 1.787,-3.587c0,-1.312 -0.564,-2.495 -1.463,-3.318c1.132,-0.804 1.872,-2.124 1.872,-3.615zM53.618,66.988c0,0.598 -0.486,1.083 -1.084,1.083h-7.429c-0.598,0 -1.083,-0.486 -1.083,-1.083v-20.322c0,-0.598 0.486,-1.083 1.083,-1.083h7.429c0.598,0 1.084,0.486 1.084,1.083zM81.547,48.647h-8.094c-0.553,0 -1,0.448 -1,1c0,0.552 0.447,1 1,1h7.616c1.38,0 2.502,1.122 2.502,2.501c0,1.376 -1.12,2.499 -2.497,2.501l-7.621,0.003c-0.553,0 -1,0.448 -1,1c0,0.552 0.447,1 1,1h7.502c1.238,0 2.245,1.007 2.245,2.245c0,0.601 -0.234,1.165 -0.659,1.589c-0.424,0.423 -0.986,0.656 -1.586,0.656c-0.001,0 -0.003,0 -0.004,0l-7.498,-0.007c-0.553,0 -1,0.448 -1,1c0,0.552 0.447,1 1,1l6.412,0.005c1.017,0.072 1.822,0.923 1.822,1.963c0,1.08 -0.877,1.958 -1.956,1.958l-18.493,0.008h-0.001c-1.501,0 -2.912,-0.584 -3.973,-1.646c-1.062,-1.062 -1.646,-2.474 -1.646,-3.976v-15.06c1.889,-2.35 4.551,-6.335 5.769,-9.007c1.286,-2.82 1.832,-5.29 2.231,-7.093c0.237,-1.07 0.531,-2.401 0.816,-2.586c2.461,0 3.972,3.626 3.972,6.226c0,1.799 -0.298,2.574 -0.71,3.646c-0.12,0.313 -0.244,0.638 -0.368,1.002c-0.581,1.714 -0.244,2.713 0.14,3.25c0.313,0.437 0.933,0.958 2.105,0.958h11.975c1.341,0 2.432,1.091 2.432,2.432c-0.001,1.341 -1.092,2.432 -2.433,2.432z"></path><path d="M97.222,50.335c-0.553,0 -1,0.448 -1,1c0,2.187 -0.22,4.372 -0.654,6.495c-0.111,0.541 0.238,1.069 0.779,1.18c0.067,0.014 0.135,0.021 0.201,0.021c0.465,0 0.882,-0.326 0.979,-0.8c0.462,-2.254 0.695,-4.575 0.695,-6.896c0,-0.552 -0.448,-1 -1,-1z"></path><path d="M96.445,62.248c0.176,-0.523 -0.106,-1.091 -0.63,-1.267c-0.522,-0.175 -1.09,0.106 -1.267,0.629c-4.412,13.127 -16.69,21.947 -30.548,21.947c-17.767,0 -32.222,-14.455 -32.222,-32.222c0,-17.767 14.455,-32.222 32.222,-32.222c16.556,0 30.332,12.398 32.047,28.839c0.057,0.549 0.545,0.943 1.098,0.891c0.55,-0.057 0.948,-0.549 0.891,-1.098c-1.821,-17.463 -16.453,-30.632 -34.036,-30.632c-18.87,0 -34.222,15.352 -34.222,34.222c0,18.87 15.352,34.222 34.222,34.222c14.719,0 27.757,-9.368 32.445,-23.309z"></path></g></g></g></svg>