<svg version="1.1" xmlns="http://www.w3.org/2000/svg" xmlns:xlink="http://www.w3.org/1999/xlink" width="30" height="30" viewBox="0,0,256,256"><g fill="#a65f5f" fill-rule="nonzero" stroke="none" stroke-width="1" stroke-linecap="butt" stroke-linejoin="miter" stroke-miterlimit="10" stroke-dasharray="" stroke-dashoffset="0" font-family="none" font-weight="none" font-size="none" text-anchor="none" style="mix-blend-mode: normal"><g transform="scale(8.53333,8.53333)"><path d="M15,3c-3.05385,0 -5.84049,1.15537 -7.96094,3.03906l-2.03906,-2.03906v6h6l-2.54492,-2.54492c1.75444,-1.52405 4.03295,-2.45508 6.54492,-2.45508c5.53453,0 10,4.46547 10,10c0,5.53453 -4.46547,10 -10,10c-5.53453,0 -10,-4.46547 -10,-10c0.0051,-0.36064 -0.18438,-0.69608 -0.49587,-0.87789c-0.3115,-0.18181 -0.69676,-0.18181 -1.00825,0c-0.3115,0.18181 -0.50097,0.51725 -0.49587,0.87789c0,6.61547 5.38453,12 12,12c6.61547,0 12,-5.38453 12,-12c0,-6.61547 -5.38453,-12 -12,-12zM17.6875,11.34961c-1.816,0 -2.95898,1.36131 -2.95898,3.69531c0,2.334 1.12698,3.72947 2.95898,3.73047c1.826,0 2.95898,-1.40061 2.95898,-3.72461c0,-2.344 -1.14698,-3.70117 -2.95898,-3.70117zM11.13477,11.53906l-1.79102,1.2207v1.54297l1.69922,-1.14844h0.0918v5.43164h1.79297v-7.04688zM17.6875,12.72656c0.684,0 1.14258,0.77036 1.14258,2.31836c0,1.558 -0.45858,2.35352 -1.14258,2.35352c-0.684,0 -1.13867,-0.79552 -1.13867,-2.35352c0,-1.548 0.45467,-2.31836 1.13867,-2.31836z"></path></g></g></svg>